<svg xmlns="http://www.w3.org/2000/svg" xmlns:xlink="http://www.w3.org/1999/xlink" width="5669" zoomAndPan="magnify" viewBox="0 0 4251.75 283.499996" height="377" preserveAspectRatio="xMidYMid meet" version="1.0"><defs><g/><clipPath id="e43d77e0fd"><path d="M 3.617188 0 L 4247.882812 0 L 4247.882812 283 L 3.617188 283 Z M 3.617188 0 " clip-rule="nonzero"/></clipPath></defs><g clip-path="url(#e43d77e0fd)"><path fill="#ffffff" d="M 3.617188 0 L 4248.132812 0 L 4248.132812 289.757812 L 3.617188 289.757812 Z M 3.617188 0 " fill-opacity="1" fill-rule="nonzero"/><path fill="#ffffff" d="M 3.617188 0 L 4248.132812 0 L 4248.132812 283.015625 L 3.617188 283.015625 Z M 3.617188 0 " fill-opacity="1" fill-rule="nonzero"/><path fill="#ffffff" d="M 3.617188 0 L 4248.132812 0 L 4248.132812 283.015625 L 3.617188 283.015625 Z M 3.617188 0 " fill-opacity="1" fill-rule="nonzero"/></g><g fill="#000000" fill-opacity="1"><g transform="translate(2125.296707, 143.273736)"><g><path d="M 0.203125 -0.390625 C 0.203125 -0.523438 0.242188 -0.628906 0.328125 -0.703125 C 0.410156 -0.785156 0.53125 -0.828125 0.6875 -0.828125 C 0.84375 -0.828125 0.960938 -0.785156 1.046875 -0.703125 C 1.128906 -0.628906 1.171875 -0.523438 1.171875 -0.390625 C 1.171875 -0.242188 1.128906 -0.128906 1.046875 -0.046875 C 0.960938 0.0234375 0.84375 0.0625 0.6875 0.0625 C 0.539062 0.0625 0.421875 0.0234375 0.328125 -0.046875 C 0.242188 -0.128906 0.203125 -0.242188 0.203125 -0.390625 Z M 0.203125 -0.390625 "/></g></g></g></svg>