<svg xmlns="http://www.w3.org/2000/svg" xmlns:xlink="http://www.w3.org/1999/xlink" width="1587" zoomAndPan="magnify" viewBox="0 0 1190.25 1683.749945" height="2245" preserveAspectRatio="xMidYMid meet" version="1.0"><defs><clipPath id="fba2cd5ba4"><path d="M 413 1383 L 744 1383 L 744 1621.980469 L 413 1621.980469 Z M 413 1383 " clip-rule="nonzero"/></clipPath><clipPath id="a652cb07e5"><path d="M 428.71875 973.023438 L 730.15625 973.023438 L 730.15625 1274.460938 L 428.71875 1274.460938 Z M 428.71875 973.023438 " clip-rule="nonzero"/></clipPath><clipPath id="b0b8959469"><path d="M 402.550781 578 L 756.476562 578 L 756.476562 865.597656 L 402.550781 865.597656 Z M 402.550781 578 " clip-rule="nonzero"/></clipPath><clipPath id="bd82819b6f"><path d="M 488.09375 49.363281 L 671.054688 49.363281 L 671.054688 435 L 488.09375 435 Z M 488.09375 49.363281 " clip-rule="nonzero"/></clipPath></defs><g clip-path="url(#fba2cd5ba4)"><path fill="#ffffff" d="M 496.730469 1386.773438 C 551.136719 1382.511719 605.792969 1382.511719 660.199219 1386.773438 L 696.746094 1389.636719 C 717.105469 1391.230469 733.757812 1406.496094 737.121094 1426.652344 C 745.542969 1477.082031 745.542969 1528.5625 737.121094 1578.992188 C 733.757812 1599.144531 717.105469 1614.414062 696.746094 1616.007812 L 660.199219 1618.871094 C 605.792969 1623.128906 551.136719 1623.128906 496.730469 1618.871094 L 460.183594 1616.007812 C 439.828125 1614.414062 423.171875 1599.144531 419.808594 1578.992188 C 411.390625 1528.5625 411.390625 1477.082031 419.808594 1426.652344 C 423.171875 1406.496094 439.828125 1391.230469 460.183594 1389.636719 Z M 545.84375 1543.140625 L 545.84375 1462.5 C 545.84375 1458.695312 549.992188 1456.34375 553.253906 1458.300781 L 620.40625 1498.625 C 623.570312 1500.527344 623.570312 1505.117188 620.40625 1507.019531 L 553.253906 1547.339844 C 549.992188 1549.300781 545.84375 1546.949219 545.84375 1543.140625 Z M 545.84375 1543.140625 " fill-opacity="1" fill-rule="evenodd"/></g><g clip-path="url(#a652cb07e5)"><path fill="#ffffff" d="M 579.371094 1000.203125 C 619.59375 1000.203125 624.351562 1000.332031 640.269531 1001.058594 C 654.929688 1001.71875 662.921875 1004.164062 668.269531 1006.277344 C 675.273438 1008.984375 680.292969 1012.289062 685.574219 1017.570312 C 690.859375 1022.855469 694.09375 1027.875 696.871094 1034.875 C 698.917969 1040.160156 701.359375 1048.152344 702.085938 1062.878906 C 702.8125 1078.796875 702.945312 1083.550781 702.945312 1123.773438 C 702.945312 1163.996094 702.8125 1168.753906 702.085938 1184.667969 C 701.425781 1199.332031 698.984375 1207.324219 696.871094 1212.671875 C 694.160156 1219.675781 690.859375 1224.695312 685.574219 1229.976562 C 680.292969 1235.261719 675.273438 1238.496094 668.269531 1241.273438 C 662.988281 1243.320312 654.996094 1245.761719 640.269531 1246.488281 C 624.351562 1247.214844 619.59375 1247.347656 579.371094 1247.347656 C 539.148438 1247.347656 534.394531 1247.214844 518.476562 1246.488281 C 503.816406 1245.828125 495.824219 1243.386719 490.472656 1241.273438 C 483.472656 1238.5625 478.453125 1235.261719 473.167969 1229.976562 C 467.886719 1224.695312 464.648438 1219.675781 461.875 1212.671875 C 459.828125 1207.390625 457.382812 1199.398438 456.660156 1184.667969 C 455.933594 1168.753906 455.800781 1163.996094 455.800781 1123.773438 C 455.800781 1083.550781 455.933594 1078.796875 456.660156 1062.878906 C 457.320312 1048.21875 459.761719 1040.226562 461.875 1034.875 C 464.582031 1027.875 467.886719 1022.855469 473.167969 1017.570312 C 478.453125 1012.289062 483.472656 1009.050781 490.472656 1006.277344 C 495.757812 1004.230469 503.75 1001.785156 518.476562 1001.058594 C 534.394531 1000.332031 539.148438 1000.203125 579.371094 1000.203125 M 579.371094 973.054688 C 538.425781 973.054688 533.339844 973.253906 517.222656 973.980469 C 501.171875 974.707031 490.210938 977.285156 480.632812 980.980469 C 470.726562 984.8125 462.339844 989.964844 453.949219 998.351562 C 445.628906 1006.742188 440.476562 1015.128906 436.644531 1025.035156 C 432.949219 1034.613281 430.371094 1045.574219 429.644531 1061.625 C 428.917969 1077.675781 428.71875 1082.824219 428.71875 1123.707031 C 428.71875 1164.65625 428.917969 1169.742188 429.644531 1185.859375 C 430.371094 1201.90625 432.949219 1212.871094 436.644531 1222.449219 C 440.476562 1232.355469 445.628906 1240.742188 454.015625 1249.132812 C 462.402344 1257.519531 470.792969 1262.671875 480.699219 1266.5 C 490.277344 1270.199219 501.238281 1272.777344 517.289062 1273.503906 C 533.339844 1274.230469 538.488281 1274.425781 579.4375 1274.425781 C 620.386719 1274.425781 625.472656 1274.230469 641.589844 1273.503906 C 657.636719 1272.777344 668.601562 1270.199219 678.179688 1266.5 C 688.085938 1262.671875 696.472656 1257.519531 704.859375 1249.132812 C 713.25 1240.742188 718.402344 1232.355469 722.230469 1222.449219 C 725.929688 1212.871094 728.503906 1201.90625 729.230469 1185.859375 C 729.957031 1169.808594 730.15625 1164.65625 730.15625 1123.707031 C 730.15625 1082.761719 729.957031 1077.675781 729.230469 1061.558594 C 728.503906 1045.507812 725.929688 1034.546875 722.230469 1024.96875 C 718.402344 1015.0625 713.25 1006.675781 704.859375 998.285156 C 696.472656 989.898438 688.085938 984.746094 678.179688 980.917969 C 668.601562 977.21875 657.636719 974.640625 641.589844 973.914062 C 625.472656 973.253906 620.320312 973.054688 579.371094 973.054688 " fill-opacity="1" fill-rule="nonzero"/></g><path fill="#ffffff" d="M 579.371094 1046.367188 C 536.640625 1046.367188 502.03125 1080.976562 502.03125 1123.707031 C 502.03125 1166.441406 536.707031 1201.113281 579.4375 1201.113281 C 622.171875 1201.113281 656.84375 1166.507812 656.84375 1123.707031 C 656.777344 1080.976562 622.105469 1046.367188 579.371094 1046.367188 M 579.371094 1173.96875 C 551.632812 1173.96875 529.175781 1151.515625 529.175781 1123.773438 C 529.175781 1096.035156 551.632812 1073.578125 579.371094 1073.578125 C 607.113281 1073.578125 629.566406 1096.035156 629.566406 1123.773438 C 629.632812 1151.449219 607.113281 1173.96875 579.371094 1173.96875 " fill-opacity="1" fill-rule="nonzero"/><path fill="#ffffff" d="M 677.914062 1043.328125 C 677.914062 1053.304688 669.789062 1061.425781 659.816406 1061.425781 C 649.84375 1061.425781 641.71875 1053.304688 641.71875 1043.328125 C 641.71875 1033.355469 649.84375 1025.234375 659.816406 1025.234375 C 669.789062 1025.234375 677.914062 1033.289062 677.914062 1043.328125 " fill-opacity="1" fill-rule="nonzero"/><g clip-path="url(#b0b8959469)"><path fill="#ffffff" d="M 719.925781 650.101562 C 720.136719 653.214844 720.136719 656.328125 720.136719 659.464844 C 720.136719 755.1875 647.257812 865.578125 514 865.578125 L 514 865.519531 C 474.632812 865.582031 436.085938 854.3125 402.945312 833.050781 C 408.667969 833.734375 414.421875 834.082031 420.195312 834.09375 C 452.816406 834.125 484.507812 823.175781 510.171875 803.023438 C 479.167969 802.4375 451.984375 782.226562 442.484375 752.714844 C 453.347656 754.8125 464.53125 754.382812 475.191406 751.464844 C 441.390625 744.636719 417.070312 714.941406 417.070312 680.460938 C 417.070312 680.140625 417.070312 679.84375 417.070312 679.539062 C 427.144531 685.148438 438.421875 688.261719 449.957031 688.609375 C 418.125 667.34375 408.316406 625.003906 427.539062 591.890625 C 464.320312 637.148438 518.589844 664.660156 576.851562 667.570312 C 571.007812 642.410156 578.988281 616.046875 597.8125 598.359375 C 626.996094 570.929688 672.886719 572.335938 700.316406 601.5 C 716.542969 598.300781 732.09375 592.347656 746.324219 583.917969 C 740.914062 600.6875 729.601562 614.933594 714.480469 623.980469 C 728.835938 622.285156 742.871094 618.441406 756.085938 612.574219 C 746.351562 627.148438 734.097656 639.847656 719.925781 650.101562 Z M 719.925781 650.101562 " fill-opacity="1" fill-rule="nonzero"/></g><g clip-path="url(#bd82819b6f)"><path fill="#ffffff" d="M 628.847656 113.414062 L 671.054688 113.414062 L 671.054688 49.953125 L 617.15625 49.953125 L 617.15625 50.195312 C 546.292969 52.785156 531.683594 92.371094 530.464844 134.21875 L 530.304688 134.21875 L 530.304688 178.253906 L 488.09375 178.253906 L 488.09375 241.796875 L 530.304688 241.796875 L 530.304688 434.9375 L 606.039062 434.9375 L 606.039062 241.796875 L 660.339844 241.796875 L 671.054688 178.253906 L 606.039062 178.253906 L 606.039062 138.832031 C 606.039062 124.828125 615.453125 113.414062 628.847656 113.414062 Z M 628.847656 113.414062 " fill-opacity="1" fill-rule="nonzero"/></g></svg>