<svg xmlns="http://www.w3.org/2000/svg" xmlns:xlink="http://www.w3.org/1999/xlink" width="500" zoomAndPan="magnify" viewBox="0 0 375 374.999991" height="500" preserveAspectRatio="xMidYMid meet" version="1.0"><defs><g/><clipPath id="a60bd01436"><path d="M 63.542969 63.542969 L 311.792969 63.542969 L 311.792969 311.792969 L 63.542969 311.792969 Z M 63.542969 63.542969 " clip-rule="nonzero"/></clipPath><clipPath id="6471efec08"><path d="M 101.4375 101.4375 L 273.1875 101.4375 L 273.1875 273.1875 L 101.4375 273.1875 Z M 101.4375 101.4375 " clip-rule="nonzero"/></clipPath></defs><g clip-path="url(#a60bd01436)"><path fill="#ffffff" d="M 304.113281 220.765625 C 300.964844 231.480469 296.160156 241.644531 290.199219 251.007812 C 285.273438 258.625 279.675781 265.785156 273.386719 272.300781 C 272.570312 273.1875 271.664062 273.984375 270.800781 274.824219 C 269.921875 275.648438 269.070312 276.503906 268.171875 277.308594 L 265.445312 279.679688 L 264.082031 280.863281 L 262.667969 281.988281 L 259.84375 284.246094 C 258.886719 284.976562 257.898438 285.667969 256.929688 286.382812 C 255.015625 287.851562 252.976562 289.140625 250.984375 290.496094 C 250.695312 290.691406 250.394531 290.890625 250.078125 291.105469 C 249.753906 291.300781 249.414062 291.503906 249.0625 291.714844 C 248.359375 292.136719 247.601562 292.589844 246.792969 293.070312 C 245.199219 294.070312 243.316406 295.015625 241.28125 296.097656 C 240.765625 296.359375 240.253906 296.648438 239.710938 296.90625 C 239.167969 297.160156 238.613281 297.417969 238.046875 297.679688 C 236.914062 298.203125 235.742188 298.746094 234.535156 299.304688 C 232.054688 300.273438 229.46875 301.4375 226.648438 302.339844 C 215.511719 306.378906 201.613281 308.875 187.667969 308.933594 C 173.722656 308.875 159.824219 306.378906 148.6875 302.339844 C 145.867188 301.4375 143.28125 300.273438 140.800781 299.304688 C 139.59375 298.746094 138.421875 298.203125 137.289062 297.679688 C 136.722656 297.417969 136.167969 297.160156 135.621094 296.910156 C 135.082031 296.648438 134.570312 296.359375 134.054688 296.097656 C 132.019531 295.015625 130.132812 294.070312 128.542969 293.070312 C 127.734375 292.589844 126.976562 292.136719 126.273438 291.714844 C 125.921875 291.503906 125.582031 291.300781 125.257812 291.105469 C 124.945312 290.894531 124.640625 290.691406 124.355469 290.496094 C 116.777344 285.53125 109.660156 279.890625 103.191406 273.558594 C 96.363281 266.738281 90.398438 259.105469 85.140625 251.007812 C 79.175781 241.644531 74.371094 231.480469 71.222656 220.765625 C 67.945312 210.085938 66.429688 198.875 66.332031 187.667969 C 66.429688 176.457031 67.945312 165.25 71.222656 154.570312 C 74.371094 143.855469 79.175781 133.691406 85.136719 124.328125 C 90.0625 116.710938 95.660156 109.546875 101.949219 103.035156 C 102.761719 102.144531 103.671875 101.347656 104.535156 100.507812 C 105.414062 99.683594 106.265625 98.832031 107.164062 98.027344 L 109.890625 95.65625 L 111.253906 94.46875 L 112.667969 93.347656 L 115.492188 91.089844 C 116.449219 90.359375 117.433594 89.667969 118.402344 88.949219 C 120.320312 87.484375 122.355469 86.195312 124.351562 84.839844 C 124.640625 84.644531 124.941406 84.441406 125.257812 84.230469 C 125.582031 84.035156 125.921875 83.832031 126.273438 83.621094 C 126.976562 83.199219 127.734375 82.746094 128.539062 82.265625 C 130.132812 81.261719 132.019531 80.320312 134.054688 79.238281 C 134.566406 78.976562 135.082031 78.6875 135.621094 78.425781 C 136.167969 78.175781 136.722656 77.917969 137.289062 77.652344 C 138.417969 77.132812 139.59375 76.589844 140.800781 76.03125 C 143.28125 75.0625 145.867188 73.898438 148.6875 72.992188 C 159.824219 68.957031 173.71875 66.460938 187.667969 66.402344 C 201.613281 66.460938 215.511719 68.957031 226.644531 72.992188 C 229.46875 73.898438 232.050781 75.0625 234.535156 76.03125 C 235.742188 76.589844 236.914062 77.132812 238.046875 77.652344 C 238.613281 77.917969 239.167969 78.175781 239.710938 78.425781 C 240.253906 78.683594 240.765625 78.976562 241.277344 79.238281 C 243.3125 80.320312 245.199219 81.261719 246.792969 82.265625 C 247.601562 82.746094 248.359375 83.199219 249.0625 83.621094 C 249.414062 83.832031 249.75 84.035156 250.078125 84.230469 C 250.390625 84.441406 250.695312 84.644531 250.980469 84.835938 C 258.558594 89.804688 265.675781 95.441406 272.144531 101.777344 C 278.96875 108.59375 284.9375 116.230469 290.195312 124.328125 C 296.160156 133.691406 300.964844 143.855469 304.113281 154.570312 C 307.390625 165.25 308.90625 176.457031 309.003906 187.667969 C 308.90625 198.875 307.390625 210.085938 304.113281 220.765625 Z M 311.792969 187.585938 L 311.789062 187.574219 C 311.6875 176.128906 310.148438 164.679688 306.8125 153.757812 C 303.605469 142.804688 298.695312 132.410156 292.574219 122.859375 L 289.628906 118.4375 C 289.628906 118.4375 288.777344 117.246094 287.503906 115.460938 C 286.273438 113.640625 284.394531 111.394531 282.597656 109.085938 C 280.664062 106.894531 278.808594 104.632812 277.246094 103.089844 C 275.730469 101.507812 274.71875 100.453125 274.71875 100.453125 C 274.71875 100.453125 274.464844 100.191406 274.003906 99.75 C 273.542969 99.304688 272.886719 98.671875 272.101562 97.910156 C 270.5625 96.34375 268.332031 94.457031 266.140625 92.519531 C 265.015625 91.585938 263.863281 90.691406 262.792969 89.832031 C 262.257812 89.40625 261.738281 88.996094 261.25 88.605469 C 260.738281 88.238281 260.257812 87.890625 259.8125 87.570312 C 258.035156 86.285156 256.851562 85.429688 256.851562 85.429688 C 256.851562 85.429688 256.59375 85.222656 256.175781 84.949219 C 255.761719 84.675781 255.210938 84.304688 254.660156 83.9375 C 253.554688 83.199219 252.453125 82.460938 252.453125 82.460938 C 252.160156 82.261719 251.851562 82.054688 251.527344 81.835938 C 251.195312 81.632812 250.851562 81.425781 250.492188 81.207031 C 249.773438 80.773438 248.996094 80.3125 248.175781 79.816406 C 246.542969 78.789062 244.617188 77.820312 242.535156 76.710938 C 242.011719 76.4375 241.484375 76.144531 240.933594 75.878906 C 240.375 75.617188 239.808594 75.351562 239.230469 75.082031 C 238.070312 74.546875 236.871094 73.992188 235.632812 73.417969 C 233.097656 72.421875 230.449219 71.230469 227.5625 70.300781 C 216.167969 66.164062 201.9375 63.597656 187.667969 63.542969 C 173.398438 63.597656 159.167969 66.164062 147.769531 70.304688 C 144.886719 71.230469 142.238281 72.421875 139.699219 73.417969 C 138.460938 73.992188 137.261719 74.546875 136.105469 75.085938 C 135.527344 75.355469 134.957031 75.617188 134.402344 75.878906 C 133.847656 76.144531 133.324219 76.4375 132.800781 76.710938 C 130.71875 77.820312 128.789062 78.789062 127.160156 79.816406 C 126.335938 80.3125 125.5625 80.777344 124.84375 81.207031 C 124.484375 81.425781 124.136719 81.636719 123.804688 81.835938 C 123.484375 82.054688 123.175781 82.261719 122.878906 82.460938 C 122.878906 82.460938 121.777344 83.199219 120.675781 83.9375 C 120.125 84.304688 119.574219 84.675781 119.160156 84.953125 C 118.742188 85.222656 118.484375 85.429688 118.484375 85.429688 C 118.484375 85.429688 117.300781 86.285156 115.523438 87.570312 C 115.078125 87.890625 114.597656 88.238281 114.085938 88.605469 C 113.59375 88.996094 113.078125 89.40625 112.542969 89.832031 C 111.472656 90.691406 110.316406 91.585938 109.195312 92.519531 C 107.003906 94.457031 104.773438 96.34375 103.234375 97.910156 C 102.445312 98.671875 101.789062 99.304688 101.332031 99.75 C 100.871094 100.191406 100.613281 100.453125 100.613281 100.453125 C 100.613281 100.453125 99.605469 101.507812 98.085938 103.089844 C 96.527344 104.632812 94.671875 106.894531 92.738281 109.085938 C 90.941406 111.394531 89.058594 113.640625 87.832031 115.460938 C 86.554688 117.246094 85.703125 118.4375 85.703125 118.4375 L 82.761719 122.859375 C 76.640625 132.410156 71.726562 142.808594 68.519531 153.757812 C 65.1875 164.679688 63.648438 176.132812 63.546875 187.578125 L 63.542969 187.585938 L 63.542969 187.75 L 63.546875 187.761719 C 63.648438 199.203125 65.1875 210.65625 68.519531 221.574219 C 71.726562 232.53125 76.640625 242.925781 82.761719 252.476562 L 85.707031 256.898438 C 85.707031 256.898438 86.558594 258.089844 87.832031 259.875 C 89.0625 261.695312 90.941406 263.9375 92.738281 266.246094 C 94.671875 268.4375 96.527344 270.703125 98.085938 272.242188 C 99.605469 273.824219 100.613281 274.882812 100.613281 274.882812 C 100.613281 274.882812 100.871094 275.144531 101.332031 275.585938 C 101.789062 276.027344 102.445312 276.664062 103.234375 277.425781 C 104.773438 278.992188 107.003906 280.878906 109.195312 282.816406 C 110.316406 283.75 111.472656 284.640625 112.542969 285.5 C 113.078125 285.929688 113.59375 286.339844 114.085938 286.730469 C 114.597656 287.097656 115.078125 287.445312 115.523438 287.765625 C 117.300781 289.050781 118.484375 289.902344 118.484375 289.902344 C 118.484375 289.902344 118.742188 290.113281 119.160156 290.382812 C 119.574219 290.660156 120.125 291.027344 120.675781 291.398438 C 121.777344 292.136719 122.882812 292.875 122.882812 292.875 C 123.175781 293.074219 123.484375 293.28125 123.804688 293.5 C 124.136719 293.699219 124.484375 293.910156 124.84375 294.125 C 125.5625 294.558594 126.335938 295.023438 127.160156 295.519531 C 128.789062 296.546875 130.71875 297.515625 132.800781 298.625 C 133.324219 298.894531 133.851562 299.191406 134.402344 299.457031 C 134.960938 299.71875 135.527344 299.980469 136.105469 300.25 C 137.261719 300.789062 138.464844 301.34375 139.703125 301.917969 C 142.238281 302.914062 144.886719 304.101562 147.773438 305.03125 C 159.167969 309.171875 173.398438 311.734375 187.667969 311.792969 C 201.9375 311.734375 216.167969 309.171875 227.5625 305.03125 C 230.449219 304.101562 233.097656 302.914062 235.636719 301.917969 C 236.871094 301.34375 238.070312 300.789062 239.230469 300.25 C 239.808594 299.980469 240.375 299.714844 240.933594 299.457031 C 241.484375 299.191406 242.011719 298.894531 242.535156 298.625 C 244.617188 297.515625 246.546875 296.546875 248.175781 295.519531 C 249 295.023438 249.773438 294.558594 250.492188 294.125 C 250.851562 293.910156 251.199219 293.699219 251.527344 293.5 C 251.851562 293.28125 252.160156 293.074219 252.453125 292.875 C 252.453125 292.875 253.554688 292.136719 254.660156 291.398438 C 255.210938 291.027344 255.761719 290.660156 256.175781 290.382812 C 256.59375 290.113281 256.851562 289.902344 256.851562 289.902344 C 256.851562 289.902344 258.035156 289.050781 259.8125 287.765625 C 260.257812 287.445312 260.738281 287.097656 261.25 286.730469 C 261.738281 286.339844 262.257812 285.929688 262.792969 285.5 C 263.863281 284.640625 265.015625 283.75 266.140625 282.816406 C 268.332031 280.878906 270.5625 278.992188 272.101562 277.425781 C 272.886719 276.664062 273.542969 276.027344 274.003906 275.585938 C 274.464844 275.144531 274.71875 274.882812 274.71875 274.882812 C 274.71875 274.882812 275.730469 273.824219 277.246094 272.242188 C 278.808594 270.703125 280.664062 268.4375 282.597656 266.246094 C 284.394531 263.9375 286.273438 261.695312 287.503906 259.875 C 288.777344 258.089844 289.628906 256.898438 289.628906 256.898438 L 292.574219 252.476562 C 298.695312 242.925781 303.605469 232.527344 306.8125 221.574219 C 310.148438 210.65625 311.6875 199.203125 311.789062 187.757812 L 311.792969 187.75 L 311.792969 187.585938 " fill-opacity="1" fill-rule="nonzero"/></g><g clip-path="url(#6471efec08)"><path fill="#ffffff" d="M 267.875 210.210938 C 265.699219 217.625 262.375 224.65625 258.25 231.136719 C 254.84375 236.40625 250.96875 241.359375 246.617188 245.867188 C 246.054688 246.480469 245.425781 247.03125 244.828125 247.613281 C 244.222656 248.183594 243.632812 248.773438 243.011719 249.332031 L 241.125 250.972656 L 240.179688 251.792969 L 239.203125 252.570312 L 237.25 254.128906 C 236.585938 254.636719 235.902344 255.113281 235.234375 255.609375 C 233.910156 256.625 232.5 257.515625 231.117188 258.457031 C 230.917969 258.589844 230.710938 258.730469 230.492188 258.875 C 230.265625 259.011719 230.035156 259.152344 229.789062 259.296875 C 229.304688 259.589844 228.777344 259.902344 228.222656 260.234375 C 227.117188 260.929688 225.8125 261.582031 224.40625 262.328125 C 224.050781 262.511719 223.695312 262.710938 223.320312 262.890625 C 222.945312 263.066406 222.5625 263.246094 222.167969 263.425781 C 221.386719 263.789062 220.574219 264.164062 219.738281 264.550781 C 218.023438 265.21875 216.234375 266.027344 214.28125 266.652344 C 206.578125 269.445312 196.964844 271.171875 187.3125 271.210938 C 177.664062 271.171875 168.050781 269.445312 160.347656 266.652344 C 158.394531 266.027344 156.605469 265.21875 154.890625 264.550781 C 154.054688 264.164062 153.242188 263.789062 152.460938 263.425781 C 152.066406 263.246094 151.683594 263.066406 151.308594 262.890625 C 150.933594 262.710938 150.578125 262.511719 150.222656 262.328125 C 148.816406 261.582031 147.511719 260.929688 146.410156 260.238281 C 145.851562 259.902344 145.324219 259.589844 144.839844 259.296875 C 144.597656 259.152344 144.363281 259.011719 144.136719 258.875 C 143.917969 258.730469 143.710938 258.589844 143.511719 258.457031 C 138.269531 255.019531 133.34375 251.117188 128.867188 246.734375 C 124.148438 242.019531 120.019531 236.738281 116.378906 231.136719 C 112.253906 224.65625 108.929688 217.625 106.75 210.210938 C 104.484375 202.824219 103.4375 195.070312 103.367188 187.3125 C 103.4375 179.558594 104.484375 171.804688 106.75 164.417969 C 108.929688 157.003906 112.253906 149.972656 116.378906 143.492188 C 119.785156 138.222656 123.660156 133.269531 128.011719 128.761719 C 128.574219 128.144531 129.203125 127.59375 129.800781 127.015625 C 130.40625 126.445312 130.996094 125.855469 131.617188 125.296875 L 133.503906 123.65625 L 134.449219 122.835938 L 135.425781 122.058594 L 137.378906 120.496094 C 138.042969 119.992188 138.722656 119.511719 139.394531 119.015625 C 140.71875 118.003906 142.128906 117.109375 143.511719 116.171875 C 143.707031 116.039062 143.917969 115.898438 144.136719 115.753906 C 144.359375 115.617188 144.59375 115.476562 144.839844 115.328125 C 145.324219 115.039062 145.847656 114.726562 146.40625 114.390625 C 147.511719 113.699219 148.816406 113.046875 150.222656 112.296875 C 150.578125 112.117188 150.933594 111.917969 151.308594 111.738281 C 151.683594 111.5625 152.066406 111.382812 152.457031 111.203125 C 153.242188 110.839844 154.054688 110.464844 154.890625 110.078125 C 156.605469 109.40625 158.394531 108.601562 160.347656 107.976562 C 168.050781 105.183594 177.664062 103.457031 187.3125 103.417969 C 196.960938 103.457031 206.578125 105.183594 214.28125 107.976562 C 216.234375 108.601562 218.023438 109.40625 219.738281 110.078125 C 220.574219 110.464844 221.386719 110.839844 222.167969 111.203125 C 222.558594 111.382812 222.945312 111.5625 223.320312 111.734375 C 223.695312 111.914062 224.050781 112.117188 224.40625 112.296875 C 225.8125 113.046875 227.117188 113.699219 228.21875 114.390625 C 228.777344 114.726562 229.300781 115.039062 229.789062 115.328125 C 230.03125 115.476562 230.265625 115.617188 230.492188 115.753906 C 230.710938 115.898438 230.917969 116.039062 231.117188 116.171875 C 236.359375 119.605469 241.285156 123.507812 245.757812 127.890625 C 250.480469 132.609375 254.609375 137.890625 258.246094 143.492188 C 262.375 149.96875 265.699219 157.003906 267.875 164.417969 C 270.144531 171.804688 271.191406 179.558594 271.257812 187.3125 C 271.191406 195.070312 270.144531 202.824219 267.875 210.210938 Z M 273.1875 187.257812 L 273.1875 187.25 C 273.117188 179.332031 272.050781 171.410156 269.746094 163.855469 C 267.527344 156.277344 264.128906 149.082031 259.890625 142.476562 L 257.855469 139.417969 C 257.855469 139.417969 257.265625 138.59375 256.382812 137.359375 C 255.535156 136.097656 254.234375 134.546875 252.992188 132.949219 C 251.652344 131.433594 250.367188 129.867188 249.289062 128.800781 C 248.242188 127.707031 247.542969 126.976562 247.542969 126.976562 C 247.542969 126.976562 247.363281 126.796875 247.046875 126.488281 C 246.726562 126.183594 246.273438 125.742188 245.726562 125.214844 C 244.664062 124.132812 243.121094 122.828125 241.605469 121.488281 C 240.828125 120.839844 240.027344 120.222656 239.289062 119.628906 C 238.917969 119.332031 238.558594 119.046875 238.21875 118.777344 C 237.867188 118.523438 237.535156 118.285156 237.226562 118.0625 C 235.996094 117.171875 235.175781 116.582031 235.175781 116.582031 C 235.175781 116.582031 235 116.4375 234.710938 116.25 C 234.421875 116.058594 234.042969 115.804688 233.664062 115.546875 C 232.898438 115.039062 232.136719 114.527344 232.136719 114.527344 C 231.933594 114.390625 231.71875 114.246094 231.496094 114.09375 C 231.265625 113.957031 231.027344 113.8125 230.777344 113.660156 C 230.28125 113.363281 229.746094 113.039062 229.175781 112.699219 C 228.046875 111.988281 226.714844 111.316406 225.273438 110.550781 C 224.910156 110.359375 224.546875 110.15625 224.164062 109.972656 C 223.78125 109.792969 223.386719 109.609375 222.988281 109.421875 C 222.1875 109.050781 221.355469 108.667969 220.5 108.269531 C 218.742188 107.582031 216.914062 106.757812 214.914062 106.117188 C 207.03125 103.253906 197.1875 101.476562 187.3125 101.4375 C 177.441406 101.476562 167.597656 103.253906 159.710938 106.117188 C 157.714844 106.757812 155.882812 107.582031 154.128906 108.273438 C 153.273438 108.667969 152.441406 109.050781 151.640625 109.425781 C 151.242188 109.609375 150.847656 109.792969 150.460938 109.972656 C 150.078125 110.15625 149.714844 110.359375 149.355469 110.550781 C 147.914062 111.316406 146.578125 111.988281 145.453125 112.699219 C 144.882812 113.039062 144.347656 113.363281 143.847656 113.660156 C 143.601562 113.8125 143.359375 113.957031 143.132812 114.09375 C 142.910156 114.246094 142.695312 114.390625 142.492188 114.527344 C 142.492188 114.527344 141.730469 115.039062 140.964844 115.546875 C 140.585938 115.804688 140.203125 116.058594 139.917969 116.25 C 139.628906 116.4375 139.449219 116.582031 139.449219 116.582031 C 139.449219 116.582031 138.628906 117.171875 137.402344 118.0625 C 137.09375 118.285156 136.761719 118.523438 136.40625 118.777344 C 136.066406 119.046875 135.710938 119.332031 135.339844 119.628906 C 134.601562 120.222656 133.800781 120.839844 133.023438 121.488281 C 131.507812 122.828125 129.964844 124.132812 128.898438 125.214844 C 128.355469 125.742188 127.902344 126.183594 127.582031 126.488281 C 127.265625 126.796875 127.085938 126.976562 127.085938 126.976562 C 127.085938 126.976562 126.386719 127.707031 125.339844 128.800781 C 124.257812 129.867188 122.976562 131.433594 121.636719 132.949219 C 120.394531 134.546875 119.09375 136.097656 118.242188 137.359375 C 117.359375 138.59375 116.773438 139.417969 116.773438 139.417969 L 114.734375 142.476562 C 110.5 149.082031 107.101562 156.277344 104.882812 163.855469 C 102.578125 171.410156 101.511719 179.332031 101.441406 187.25 L 101.441406 187.257812 L 101.4375 187.3125 L 101.441406 187.371094 L 101.441406 187.378906 C 101.511719 195.296875 102.578125 203.21875 104.882812 210.773438 C 107.101562 218.351562 110.5 225.542969 114.734375 232.152344 L 116.773438 235.210938 C 116.773438 235.210938 117.363281 236.035156 118.242188 237.269531 C 119.09375 238.53125 120.394531 240.082031 121.636719 241.679688 C 122.976562 243.195312 124.257812 244.761719 125.339844 245.828125 C 126.386719 246.921875 127.085938 247.652344 127.085938 247.652344 C 127.085938 247.652344 127.265625 247.832031 127.582031 248.140625 C 127.902344 248.445312 128.355469 248.886719 128.898438 249.414062 C 129.964844 250.496094 131.507812 251.800781 133.023438 253.140625 C 133.800781 253.785156 134.601562 254.40625 135.339844 255 C 135.710938 255.296875 136.066406 255.578125 136.40625 255.851562 C 136.761719 256.105469 137.09375 256.34375 137.402344 256.566406 C 138.628906 257.453125 139.449219 258.046875 139.449219 258.046875 C 139.449219 258.046875 139.628906 258.191406 139.917969 258.378906 C 140.203125 258.570312 140.585938 258.824219 140.964844 259.078125 C 141.730469 259.589844 142.492188 260.101562 142.492188 260.101562 C 142.695312 260.238281 142.910156 260.382812 143.132812 260.53125 C 143.363281 260.671875 143.601562 260.816406 143.847656 260.96875 C 144.347656 261.265625 144.882812 261.589844 145.453125 261.929688 C 146.582031 262.640625 147.914062 263.3125 149.355469 264.078125 C 149.71875 264.265625 150.082031 264.472656 150.464844 264.65625 C 150.847656 264.835938 151.242188 265.019531 151.640625 265.203125 C 152.441406 265.574219 153.273438 265.960938 154.128906 266.355469 C 155.882812 267.046875 157.714844 267.871094 159.710938 268.511719 C 167.597656 271.375 177.441406 273.148438 187.3125 273.1875 C 197.1875 273.148438 207.03125 271.375 214.917969 268.511719 C 216.914062 267.871094 218.746094 267.046875 220.5 266.355469 C 221.355469 265.960938 222.1875 265.574219 222.988281 265.203125 C 223.386719 265.015625 223.78125 264.835938 224.164062 264.65625 C 224.546875 264.472656 224.910156 264.265625 225.273438 264.078125 C 226.714844 263.3125 228.046875 262.640625 229.175781 261.929688 C 229.746094 261.589844 230.28125 261.265625 230.78125 260.96875 C 231.027344 260.816406 231.265625 260.671875 231.496094 260.53125 C 231.71875 260.382812 231.933594 260.238281 232.136719 260.101562 C 232.136719 260.101562 232.898438 259.589844 233.664062 259.078125 C 234.042969 258.824219 234.425781 258.570312 234.710938 258.378906 C 235 258.191406 235.175781 258.046875 235.175781 258.046875 C 235.175781 258.046875 235.996094 257.453125 237.226562 256.566406 C 237.535156 256.34375 237.867188 256.105469 238.21875 255.851562 C 238.558594 255.578125 238.917969 255.296875 239.289062 255 C 240.027344 254.40625 240.828125 253.785156 241.605469 253.140625 C 243.121094 251.800781 244.664062 250.496094 245.726562 249.414062 C 246.273438 248.886719 246.726562 248.445312 247.046875 248.140625 C 247.363281 247.832031 247.542969 247.652344 247.542969 247.652344 C 247.542969 247.652344 248.242188 246.921875 249.289062 245.828125 C 250.367188 244.761719 251.652344 243.195312 252.992188 241.679688 C 254.234375 240.082031 255.535156 238.527344 256.382812 237.269531 C 257.265625 236.035156 257.855469 235.210938 257.855469 235.210938 L 259.890625 232.152344 C 264.128906 225.542969 267.527344 218.351562 269.746094 210.773438 C 272.050781 203.21875 273.117188 195.296875 273.1875 187.378906 L 273.1875 187.257812 " fill-opacity="1" fill-rule="nonzero"/></g><g fill="#ffffff" fill-opacity="1"><g transform="translate(102.510794, 141.450617)"><g><path d="M 4.101562 -5.578125 C 6.421875 -9.019531 4.820312 -12.421875 1.445312 -14.695312 C -1.929688 -16.972656 -5.703125 -17.148438 -8.003906 -13.742188 C -10.300781 -10.332031 -8.726562 -6.925781 -5.335938 -4.640625 C -1.960938 -2.363281 1.792969 -2.152344 4.101562 -5.578125 Z M 2.089844 -6.933594 C 0.765625 -4.972656 -1.628906 -5.546875 -3.753906 -6.984375 C -5.867188 -8.40625 -7.324219 -10.40625 -5.992188 -12.382812 C -4.65625 -14.363281 -2.246094 -13.777344 -0.132812 -12.351562 C 1.992188 -10.917969 3.421875 -8.914062 2.089844 -6.933594 Z M 2.089844 -6.933594 "/></g></g></g><g fill="#ffffff" fill-opacity="1"><g transform="translate(112.488564, 127.391862)"><g><path d="M 1.023438 -1.101562 L 2.90625 -3.128906 L -1.101562 -6.855469 L 2.023438 -10.21875 L 0.292969 -11.828125 L -2.835938 -8.464844 L -5.609375 -11.046875 L -2.183594 -14.734375 L -3.945312 -16.371094 L -9.257812 -10.660156 Z M 1.023438 -1.101562 "/></g></g></g><g fill="#ffffff" fill-opacity="1"><g transform="translate(121.792729, 117.700467)"><g><path d="M 1.839844 -4.511719 L -0.558594 -7.472656 L 3.257812 -10.566406 L 1.84375 -12.308594 L -1.972656 -9.214844 L -4.058594 -11.785156 L 0.101562 -15.15625 L -1.363281 -16.964844 L -7.671875 -11.851562 L 1.167969 -0.945312 L 7.617188 -6.175781 L 6.140625 -7.996094 Z M 1.839844 -4.511719 "/></g></g></g><g fill="#ffffff" fill-opacity="1"><g transform="translate(132.950131, 108.918655)"><g><path d="M 3.511719 -8.726562 C 5.371094 -10.070312 5.6875 -12.230469 4.625 -14.046875 C 3.164062 -16.539062 1.039062 -16.875 -1.953125 -15.121094 L -5.796875 -12.871094 L 1.296875 -0.761719 L 3.683594 -2.160156 L 1.585938 -5.738281 L 0.738281 -7.195312 L 0.753906 -7.203125 C 1.257812 -6.941406 1.8125 -6.707031 2.320312 -6.472656 L 7.335938 -4.296875 L 10.140625 -5.9375 Z M -0.0546875 -8.542969 L -2.273438 -12.332031 L -1.042969 -13.050781 C 0.476562 -13.945312 1.503906 -13.777344 2.246094 -12.515625 C 3.015625 -11.199219 2.679688 -10.144531 1.175781 -9.261719 Z M -0.0546875 -8.542969 "/></g></g></g><g fill="#ffffff" fill-opacity="1"><g transform="translate(146.568271, 101.309986)"><g><path d="M 4.300781 -16.824219 L -4.882812 -13.164062 L -3.992188 -10.929688 L -0.675781 -12.25 L 3.632812 -1.449219 L 6.203125 -2.472656 L 1.894531 -13.277344 L 5.191406 -14.589844 Z M 4.300781 -16.824219 "/></g></g></g><g fill="#ffffff" fill-opacity="1"><g transform="translate(159.607942, 96.293896)"><g><path d="M 9.578125 -2.199219 L 12.644531 -2.902344 L 4.015625 -15.40625 L 2.179688 -14.984375 L -0.0390625 0.0078125 L 2.910156 -0.667969 L 3.234375 -3.292969 L 8.160156 -4.421875 Z M 3.804688 -8.792969 C 3.902344 -9.535156 3.960938 -10.269531 4.039062 -11.007812 L 4.097656 -11.019531 C 4.453125 -10.363281 4.796875 -9.761719 5.230469 -9.121094 L 7.101562 -6.339844 L 3.390625 -5.488281 Z M 3.804688 -8.792969 "/></g></g></g><g fill="#ffffff" fill-opacity="1"><g transform="translate(175.730937, 93.090724)"><g/></g></g><g fill="#ffffff" fill-opacity="1"><g transform="translate(183.448632, 92.310083)"><g><path d="M 4.292969 -2.304688 L 4.328125 -6.113281 L 9.242188 -6.066406 L 9.265625 -8.3125 L 4.351562 -8.359375 L 4.382812 -11.667969 L 9.738281 -11.617188 L 9.757812 -13.941406 L 1.636719 -14.019531 L 1.503906 0.015625 L 9.804688 0.09375 L 9.828125 -2.25 Z M 4.292969 -2.304688 "/></g></g></g><g fill="#ffffff" fill-opacity="1"><g transform="translate(197.66793, 92.701318)"><g><path d="M 4.820312 0.96875 C 7.8125 1.429688 9.984375 0.121094 10.371094 -2.375 C 10.730469 -4.714844 9.386719 -6 7.28125 -7.214844 C 5.699219 -8.128906 5.101562 -8.75 5.25 -9.699219 C 5.390625 -10.613281 6.183594 -11.015625 7.453125 -10.820312 C 8.582031 -10.648438 9.757812 -10.242188 10.800781 -9.65625 L 11.167969 -12.011719 C 10.101562 -12.605469 8.96875 -13.023438 7.382812 -13.265625 C 4.726562 -13.675781 2.882812 -12.5 2.519531 -10.140625 C 2.21875 -8.199219 3.105469 -6.722656 5.417969 -5.394531 C 7.242188 -4.339844 7.699219 -3.742188 7.558594 -2.832031 C 7.386719 -1.722656 6.417969 -1.222656 4.792969 -1.472656 C 3.5625 -1.660156 2.398438 -2.125 1.222656 -2.792969 L 0.847656 -0.355469 C 1.851562 0.226562 3.15625 0.710938 4.820312 0.96875 Z M 4.820312 0.96875 "/></g></g></g><g fill="#ffffff" fill-opacity="1"><g transform="translate(211.461374, 95.044703)"><g><path d="M 9.5 -11.75 L 5.59375 -12.960938 L 1.4375 0.445312 L 4.078125 1.265625 L 5.476562 -3.234375 L 6.816406 -2.820312 C 9.957031 -1.84375 12.441406 -2.753906 13.375 -5.761719 C 14.351562 -8.902344 12.796875 -10.726562 9.5 -11.75 Z M 7.429688 -5.066406 L 6.164062 -5.457031 L 7.546875 -9.917969 L 8.8125 -9.527344 C 10.496094 -9.003906 11.148438 -8.128906 10.664062 -6.558594 C 10.1875 -5.027344 9.113281 -4.542969 7.429688 -5.066406 Z M 7.429688 -5.066406 "/></g></g></g><g fill="#ffffff" fill-opacity="1"><g transform="translate(225.763432, 99.779845)"><g><path d="M 4.867188 -0.257812 L 6.523438 -3.6875 L 10.945312 -1.554688 L 11.921875 -3.578125 L 7.496094 -5.710938 L 8.933594 -8.691406 L 13.757812 -6.363281 L 14.769531 -8.460938 L 7.453125 -11.988281 L 1.355469 0.652344 L 8.832031 4.261719 L 9.851562 2.148438 Z M 4.867188 -0.257812 "/></g></g></g><g fill="#ffffff" fill-opacity="1"><g transform="translate(238.462392, 106.178168)"><g><path d="M 5.703125 4.097656 C 6.632812 4.726562 7.664062 5.203125 8.636719 5.304688 L 10.007812 3.277344 C 9.050781 3.1875 8.195312 2.804688 7.347656 2.230469 C 5.054688 0.683594 5.640625 -1.753906 6.988281 -3.75 C 8.335938 -5.742188 10.414062 -7.167969 12.636719 -5.664062 C 13.335938 -5.191406 14.042969 -4.519531 14.5625 -3.785156 L 15.933594 -5.8125 C 15.441406 -6.480469 14.75 -7.214844 13.785156 -7.867188 C 10.382812 -10.167969 6.921875 -8.703125 4.632812 -5.316406 C 2.285156 -1.84375 2.230469 1.75 5.703125 4.097656 Z M 5.703125 4.097656 "/></g></g></g><g fill="#ffffff" fill-opacity="1"><g transform="translate(250.157418, 114.524432)"><g><path d="M 1.136719 0.984375 L 3.226562 2.800781 L 12.425781 -7.800781 L 10.335938 -9.617188 Z M 1.136719 0.984375 "/></g></g></g><g fill="#ffffff" fill-opacity="1"><g transform="translate(257.165681, 120.600263)"><g><path d="M 6.519531 7.351562 L 8.609375 9.707031 L 15.445312 -3.859375 L 14.195312 -5.269531 L -0.0273438 -0.03125 L 1.984375 2.234375 L 4.441406 1.261719 L 7.792969 5.039062 Z M 9.542969 -0.875 C 10.238281 -1.148438 10.910156 -1.449219 11.59375 -1.734375 L 11.636719 -1.6875 C 11.226562 -1.058594 10.867188 -0.472656 10.511719 0.21875 L 8.96875 3.195312 L 6.441406 0.34375 Z M 9.542969 -0.875 "/></g></g></g><g fill="#ffffff" fill-opacity="1"><g transform="translate(267.72571, 133.063922)"><g><path d="M 0.816406 1.261719 L 5.25 8.113281 L 7.289062 6.796875 L 4.359375 2.265625 L 14.105469 -4.039062 L 12.601562 -6.363281 Z M 0.816406 1.261719 "/></g></g></g><g fill="#ffffff" fill-opacity="1"><g transform="translate(107.422569, 259.941777)"><g><path d="M 3.859375 4.121094 C 6.273438 6.496094 9.238281 5.71875 11.566406 3.355469 C 13.894531 0.988281 14.601562 -2.011719 12.210938 -4.363281 C 9.820312 -6.714844 6.855469 -5.964844 4.515625 -3.585938 C 2.1875 -1.21875 1.460938 1.757812 3.859375 4.121094 Z M 5.25 2.710938 C 3.871094 1.355469 4.691406 -0.476562 6.160156 -1.96875 C 7.617188 -3.449219 9.4375 -4.320312 10.824219 -2.953125 C 12.210938 -1.589844 11.378906 0.257812 9.925781 1.738281 C 8.457031 3.230469 6.636719 4.074219 5.25 2.710938 Z M 5.25 2.710938 "/></g></g></g><g fill="#ffffff" fill-opacity="1"><g transform="translate(118.361302, 270.250265)"><g><path d="M 0.972656 0.746094 L 2.765625 2.117188 L 5.480469 -1.425781 L 8.453125 0.851562 L 9.625 -0.679688 L 6.652344 -2.957031 L 8.53125 -5.410156 L 11.792969 -2.914062 L 12.984375 -4.472656 L 7.933594 -8.339844 Z M 0.972656 0.746094 "/></g></g></g><g fill="#ffffff" fill-opacity="1"><g transform="translate(127.86815, 277.297898)"><g><path d="M 3.972656 0.15625 L 5.574219 -2.503906 L 9.007812 -0.4375 L 9.949219 -2.007812 L 6.519531 -4.074219 L 7.910156 -6.386719 L 11.648438 -4.132812 L 12.628906 -5.757812 L 6.953125 -9.175781 L 1.050781 0.632812 L 6.851562 4.125 L 7.839844 2.484375 Z M 3.972656 0.15625 "/></g></g></g><g fill="#ffffff" fill-opacity="1"><g transform="translate(138.693366, 283.590555)"><g><path d="M 7.457031 -1.800781 C 9.230469 -1.203125 10.8125 -2.015625 11.515625 -3.582031 C 12.480469 -5.730469 11.695312 -7.300781 9.113281 -8.457031 L 5.800781 -9.945312 L 1.121094 0.5 L 3.179688 1.425781 L 4.5625 -1.664062 L 5.125 -2.917969 L 5.140625 -2.910156 C 5.203125 -2.453125 5.3125 -1.972656 5.394531 -1.523438 L 6.328125 2.835938 L 8.746094 3.917969 Z M 5.648438 -4.082031 L 7.113281 -7.347656 L 8.171875 -6.875 C 9.484375 -6.285156 9.859375 -5.527344 9.371094 -4.4375 C 8.863281 -3.300781 8.003906 -3.023438 6.707031 -3.605469 Z M 5.648438 -4.082031 "/></g></g></g><g fill="#ffffff" fill-opacity="1"><g transform="translate(151.262452, 288.937768)"><g><path d="M 11.367188 -8.449219 L 3.667969 -10.847656 L 3.085938 -8.972656 L 5.863281 -8.109375 L 3.042969 0.949219 L 5.199219 1.617188 L 8.019531 -7.4375 L 10.78125 -6.578125 Z M 11.367188 -8.449219 "/></g></g></g><g fill="#ffffff" fill-opacity="1"><g transform="translate(163.104363, 292.447341)"><g><path d="M 7.882812 1.429688 L 10.410156 1.886719 L 7.960938 -10.257812 L 6.445312 -10.53125 L -0.03125 -0.00390625 L 2.398438 0.433594 L 3.484375 -1.429688 L 7.539062 -0.695312 Z M 5.675781 -5.367188 C 5.988281 -5.894531 6.265625 -6.425781 6.5625 -6.953125 L 6.609375 -6.945312 C 6.667969 -6.335938 6.730469 -5.777344 6.851562 -5.15625 L 7.363281 -2.472656 L 4.304688 -3.023438 Z M 5.675781 -5.367188 "/></g></g></g><g fill="#ffffff" fill-opacity="1"><g transform="translate(177.110865, 294.630727)"><g/></g></g><g fill="#ffffff" fill-opacity="1"><g transform="translate(184.117156, 295.16358)"><g><path d="M 3.46875 -1.941406 L 3.445312 -5.046875 L 7.449219 -5.078125 L 7.4375 -6.910156 L 3.429688 -6.878906 L 3.410156 -9.578125 L 7.777344 -9.609375 L 7.761719 -11.507812 L 1.140625 -11.457031 L 1.226562 -0.0078125 L 7.996094 -0.0625 L 7.980469 -1.972656 Z M 3.46875 -1.941406 "/></g></g></g><g fill="#ffffff" fill-opacity="1"><g transform="translate(196.608597, 294.852325)"><g><path d="M 4 -0.308594 C 6.449219 -0.609375 7.863281 -2.117188 7.613281 -4.160156 C 7.378906 -6.074219 6.039062 -6.785156 4.117188 -7.273438 C 2.671875 -7.640625 2.070312 -7.996094 1.972656 -8.777344 C 1.882812 -9.523438 2.414062 -10.015625 3.453125 -10.144531 C 4.378906 -10.257812 5.390625 -10.199219 6.34375 -9.96875 L 6.105469 -11.902344 C 5.140625 -12.128906 4.15625 -12.207031 2.859375 -12.046875 C 0.683594 -11.78125 -0.503906 -10.449219 -0.269531 -8.519531 C -0.0742188 -6.925781 0.949219 -5.964844 3.058594 -5.433594 C 4.726562 -5.011719 5.214844 -4.640625 5.304688 -3.894531 C 5.417969 -2.984375 4.765625 -2.378906 3.4375 -2.214844 C 2.429688 -2.09375 1.410156 -2.199219 0.339844 -2.464844 L 0.585938 -0.46875 C 1.503906 -0.234375 2.636719 -0.140625 4 -0.308594 Z M 4 -0.308594 "/></g></g></g><g fill="#ffffff" fill-opacity="1"><g transform="translate(208.822502, 293.164967)"><g><path d="M 1.71875 -12.203125 L -1.519531 -11.410156 L 1.191406 -0.289062 L 3.382812 -0.824219 L 2.472656 -4.558594 L 3.585938 -4.828125 C 6.191406 -5.464844 7.550781 -7.144531 6.941406 -9.636719 C 6.304688 -12.242188 4.453125 -12.867188 1.71875 -12.203125 Z M 3.074219 -6.65625 L 2.023438 -6.402344 L 1.121094 -10.101562 L 2.167969 -10.359375 C 3.566406 -10.699219 4.390625 -10.363281 4.707031 -9.058594 C 5.019531 -7.789062 4.46875 -7 3.074219 -6.65625 Z M 3.074219 -6.65625 "/></g></g></g><g fill="#ffffff" fill-opacity="1"><g transform="translate(221.600798, 289.799378)"><g><path d="M 2.59375 -3.011719 L 1.507812 -5.921875 L 5.257812 -7.324219 L 4.617188 -9.039062 L 0.863281 -7.636719 L -0.078125 -10.164062 L 4.011719 -11.691406 L 3.347656 -13.46875 L -2.855469 -11.152344 L 1.148438 -0.429688 L 7.492188 -2.796875 L 6.820312 -4.589844 Z M 2.59375 -3.011719 "/></g></g></g><g fill="#ffffff" fill-opacity="1"><g transform="translate(233.234474, 285.227734)"><g><path d="M 5.171875 -2.460938 C 5.984375 -2.878906 6.734375 -3.425781 7.1875 -4.082031 L 6.28125 -5.855469 C 5.839844 -5.210938 5.230469 -4.75 4.488281 -4.371094 C 2.476562 -3.34375 0.964844 -4.71875 0.0742188 -6.464844 C -0.820312 -8.214844 -1.023438 -10.257812 0.929688 -11.257812 C 1.539062 -11.570312 2.300781 -11.808594 3.03125 -11.890625 L 2.121094 -13.667969 C 1.449219 -13.578125 0.652344 -13.375 -0.191406 -12.941406 C -3.175781 -11.417969 -3.492188 -8.371094 -1.972656 -5.402344 C -0.417969 -2.359375 2.128906 -0.902344 5.171875 -2.460938 Z M 5.171875 -2.460938 "/></g></g></g><g fill="#ffffff" fill-opacity="1"><g transform="translate(244.210303, 279.307334)"><g><path d="M 1.035156 -0.660156 L 2.933594 -1.875 L -3.226562 -11.523438 L -5.128906 -10.308594 Z M 1.035156 -0.660156 "/></g></g></g><g fill="#ffffff" fill-opacity="1"><g transform="translate(251.248607, 274.768764)"><g><path d="M 6.269531 -4.992188 L 8.277344 -6.589844 L -2.472656 -12.746094 L -3.675781 -11.789062 L -0.0273438 0.0195312 L 1.90625 -1.515625 L 1.21875 -3.5625 L 4.445312 -6.128906 Z M -0.300781 -7.808594 C -0.492188 -8.386719 -0.707031 -8.949219 -0.910156 -9.519531 L -0.871094 -9.546875 C -0.375 -9.191406 0.0898438 -8.871094 0.632812 -8.550781 L 2.988281 -7.167969 L 0.558594 -5.230469 Z M -0.300781 -7.808594 "/></g></g></g><g fill="#ffffff" fill-opacity="1"><g transform="translate(262.222492, 265.653906)"><g><path d="M 0.859375 -0.875 L 5.535156 -5.613281 L 4.125 -7.003906 L 1.035156 -3.871094 L -5.707031 -10.515625 L -7.289062 -8.910156 Z M 0.859375 -0.875 "/></g></g></g><g fill="#ffffff" fill-opacity="1"><g transform="translate(41.156136, 205.379415)"><g><path d="M 9.660156 0.390625 C 15.457031 0.390625 18.148438 -4.117188 18.148438 -9.800781 C 18.148438 -15.488281 15.402344 -19.996094 9.660156 -19.996094 C 3.921875 -19.996094 1.203125 -15.515625 1.203125 -9.800781 C 1.203125 -4.117188 3.894531 0.390625 9.660156 0.390625 Z M 9.660156 -2.996094 C 6.355469 -2.996094 5.152344 -6.21875 5.152344 -9.800781 C 5.152344 -13.359375 6.328125 -16.605469 9.660156 -16.605469 C 12.996094 -16.605469 14.199219 -13.359375 14.199219 -9.800781 C 14.199219 -6.21875 12.996094 -2.996094 9.660156 -2.996094 Z M 9.660156 -2.996094 "/></g></g></g><g fill="#ffffff" fill-opacity="1"><g transform="translate(66.102832, 205.379415)"><g><path d="M 2.101562 0 L 5.964844 0 L 5.964844 -7.644531 L 12.378906 -7.644531 L 12.378906 -10.949219 L 5.964844 -10.949219 L 5.964844 -16.242188 L 12.996094 -16.242188 L 12.996094 -19.601562 L 2.101562 -19.601562 Z M 2.101562 0 "/></g></g></g><g fill="#ffffff" fill-opacity="1"><g transform="translate(85.646258, 205.379415)"><g><path d="M 5.964844 -3.277344 L 5.964844 -8.597656 L 12.828125 -8.597656 L 12.828125 -11.734375 L 5.964844 -11.734375 L 5.964844 -16.355469 L 13.441406 -16.355469 L 13.441406 -19.601562 L 2.101562 -19.601562 L 2.101562 0 L 13.695312 0 L 13.695312 -3.277344 Z M 5.964844 -3.277344 "/></g></g></g><g fill="#ffffff" fill-opacity="1"><g transform="translate(106.309531, 205.379415)"><g><path d="M 10.390625 -8.039062 C 13.582031 -8.34375 15.488281 -10.726562 15.488281 -13.667969 C 15.488281 -17.699219 13.164062 -19.601562 8.316406 -19.601562 L 2.101562 -19.601562 L 2.101562 0 L 5.964844 0 L 5.964844 -8.148438 L 5.992188 -8.148438 C 6.414062 -7.476562 6.917969 -6.804688 7.367188 -6.160156 L 11.875 0 L 16.410156 0 Z M 5.964844 -10.332031 L 5.964844 -16.46875 L 7.953125 -16.46875 C 10.417969 -16.46875 11.539062 -15.542969 11.539062 -13.5 C 11.539062 -11.371094 10.390625 -10.332031 7.953125 -10.332031 Z M 5.964844 -10.332031 "/></g></g></g><g fill="#ffffff" fill-opacity="1"><g transform="translate(128.932543, 205.379415)"><g><path d="M 14.28125 -19.601562 L 0.476562 -19.601562 L 0.476562 -16.242188 L 5.460938 -16.242188 L 5.460938 0 L 9.324219 0 L 9.324219 -16.242188 L 14.28125 -16.242188 Z M 14.28125 -19.601562 "/></g></g></g><g fill="#ffffff" fill-opacity="1"><g transform="translate(149.287861, 205.379415)"><g><path d="M 13.722656 0 L 18.121094 0 L 10.277344 -19.714844 L 7.644531 -19.714844 L -0.0546875 0 L 4.171875 0 L 5.433594 -3.472656 L 12.488281 -3.472656 Z M 7.925781 -10.78125 C 8.289062 -11.761719 8.597656 -12.742188 8.933594 -13.722656 L 9.019531 -13.722656 C 9.296875 -12.714844 9.578125 -11.789062 9.96875 -10.78125 L 11.648438 -6.414062 L 6.328125 -6.414062 Z M 7.925781 -10.78125 "/></g></g></g><g fill="#ffffff" fill-opacity="1"><g transform="translate(172.946734, 205.379415)"><g/></g></g><g fill="#ffffff" fill-opacity="1"><g transform="translate(184.399271, 205.379415)"><g><path d="M 5.964844 -3.277344 L 5.964844 -8.597656 L 12.828125 -8.597656 L 12.828125 -11.734375 L 5.964844 -11.734375 L 5.964844 -16.355469 L 13.441406 -16.355469 L 13.441406 -19.601562 L 2.101562 -19.601562 L 2.101562 0 L 13.695312 0 L 13.695312 -3.277344 Z M 5.964844 -3.277344 "/></g></g></g><g fill="#ffffff" fill-opacity="1"><g transform="translate(205.062551, 205.379415)"><g><path d="M 6.859375 0.308594 C 11.089844 0.308594 13.804688 -1.960938 13.804688 -5.488281 C 13.804688 -8.792969 11.679688 -10.277344 8.511719 -11.511719 C 6.132812 -12.433594 5.179688 -13.164062 5.179688 -14.507812 C 5.179688 -15.792969 6.1875 -16.523438 7.980469 -16.523438 C 9.578125 -16.523438 11.285156 -16.214844 12.855469 -15.625 L 12.855469 -18.960938 C 11.257812 -19.546875 9.605469 -19.882812 7.367188 -19.882812 C 3.613281 -19.882812 1.316406 -17.867188 1.316406 -14.535156 C 1.316406 -11.789062 2.855469 -9.941406 6.328125 -8.597656 C 9.074219 -7.535156 9.828125 -6.804688 9.828125 -5.515625 C 9.828125 -3.949219 8.597656 -3.050781 6.300781 -3.050781 C 4.566406 -3.050781 2.855469 -3.445312 1.09375 -4.117188 L 1.09375 -0.671875 C 2.605469 -0.0859375 4.507812 0.308594 6.859375 0.308594 Z M 6.859375 0.308594 "/></g></g></g><g fill="#ffffff" fill-opacity="1"><g transform="translate(225.417869, 205.379415)"><g><path d="M 7.8125 -19.601562 L 2.101562 -19.601562 L 2.101562 0 L 5.964844 0 L 5.964844 -6.582031 L 7.925781 -6.582031 C 12.519531 -6.582031 15.457031 -8.820312 15.457031 -13.21875 C 15.457031 -17.8125 12.628906 -19.601562 7.8125 -19.601562 Z M 7.8125 -9.828125 L 5.964844 -9.828125 L 5.964844 -16.355469 L 7.8125 -16.355469 C 10.277344 -16.355469 11.511719 -15.457031 11.511719 -13.164062 C 11.511719 -10.921875 10.277344 -9.828125 7.8125 -9.828125 Z M 7.8125 -9.828125 "/></g></g></g><g fill="#ffffff" fill-opacity="1"><g transform="translate(247.284975, 205.379415)"><g><path d="M 5.964844 -3.277344 L 5.964844 -8.597656 L 12.828125 -8.597656 L 12.828125 -11.734375 L 5.964844 -11.734375 L 5.964844 -16.355469 L 13.441406 -16.355469 L 13.441406 -19.601562 L 2.101562 -19.601562 L 2.101562 0 L 13.695312 0 L 13.695312 -3.277344 Z M 5.964844 -3.277344 "/></g></g></g><g fill="#ffffff" fill-opacity="1"><g transform="translate(267.948243, 205.379415)"><g><path d="M 9.800781 0.28125 C 11.371094 0.28125 12.9375 0.0273438 14.140625 -0.617188 L 14.140625 -4.03125 C 12.964844 -3.386719 11.679688 -3.164062 10.25 -3.164062 C 6.386719 -3.164062 5.152344 -6.441406 5.152344 -9.800781 C 5.152344 -13.164062 6.441406 -16.4375 10.195312 -16.4375 C 11.371094 -16.4375 12.714844 -16.214844 13.890625 -15.765625 L 13.890625 -19.183594 C 12.796875 -19.574219 11.425781 -19.882812 9.800781 -19.882812 C 4.0625 -19.882812 1.203125 -15.488281 1.203125 -9.773438 C 1.203125 -3.921875 3.949219 0.28125 9.800781 0.28125 Z M 9.800781 0.28125 "/></g></g></g><g fill="#ffffff" fill-opacity="1"><g transform="translate(288.69551, 205.379415)"><g><path d="M 2.101562 0 L 5.964844 0 L 5.964844 -19.601562 L 2.101562 -19.601562 Z M 2.101562 0 "/></g></g></g><g fill="#ffffff" fill-opacity="1"><g transform="translate(302.359732, 205.379415)"><g><path d="M 13.722656 0 L 18.121094 0 L 10.277344 -19.714844 L 7.644531 -19.714844 L -0.0546875 0 L 4.171875 0 L 5.433594 -3.472656 L 12.488281 -3.472656 Z M 7.925781 -10.78125 C 8.289062 -11.761719 8.597656 -12.742188 8.933594 -13.722656 L 9.019531 -13.722656 C 9.296875 -12.714844 9.578125 -11.789062 9.96875 -10.78125 L 11.648438 -6.414062 L 6.328125 -6.414062 Z M 7.925781 -10.78125 "/></g></g></g><g fill="#ffffff" fill-opacity="1"><g transform="translate(326.018605, 205.379415)"><g><path d="M 2.101562 0 L 13.5 0 L 13.5 -3.386719 L 5.964844 -3.386719 L 5.964844 -19.601562 L 2.101562 -19.601562 Z M 2.101562 0 "/></g></g></g></svg>